<svg xmlns="http://www.w3.org/2000/svg" viewBox="0 0 586.98 313.23"><defs><style>.cls-1{font-size:215px;font-family:BrushScriptMT, Brush Script MT;}.cls-1,.cls-3{fill:#fff;}.cls-2{letter-spacing:-0.06em;}</style></defs><g id="Layer_2" data-name="Layer 2"><g id="Layer_1-2" data-name="Layer 1"><text class="cls-1" transform="translate(9.46 175.33)">Mický<tspan class="cls-2" x="450.26" y="0">’</tspan><tspan x="508.32" y="0">s</tspan></text><path class="cls-3" d="M421.26,245.83c-.37-1.09-.73-2.12-1.09-3.09-.29,1-.62,2.06-1,3.09s-.7,2-1,3-.63,1.82-.93,2.59L408,275.57h24.16l-8.94-24.25c-.24-.62-.52-1.42-.86-2.39S421.62,246.93,421.26,245.83Z"/><path class="cls-3" d="M313,245.83c-.37-1.09-.73-2.12-1.09-3.09-.29,1-.62,2.06-1,3.09s-.69,2-1,3-.63,1.82-.93,2.59l-9.29,24.16h24.16l-8.94-24.25c-.23-.62-.52-1.42-.86-2.39S313.34,246.93,313,245.83Z"/><path class="cls-3" d="M382.29,255.66q0-7.83-4.69-10.8t-14.29-3H352.6v28.5h12.87q7.93,0,12.37-3.8T382.29,255.66Z"/><path class="cls-3" d="M19.59,227.15v86.08H567.54V227.15Zm45.27,75.42L48.18,274.42H32.12v28.15H27.56v-64.7H43.27a42,42,0,0,1,12.85,1.68,14.37,14.37,0,0,1,7.77,5.53q2.61,3.85,2.61,10.4a18.47,18.47,0,0,1-1.79,8.43,15.9,15.9,0,0,1-4.94,5.78,23.73,23.73,0,0,1-7.25,3.45l17.74,29.43ZM116.77,242H86V266.5h29.08v4.11H86v27.84h30.8v4.12H81.41v-64.7h35.36Zm47.4,53.62a17.72,17.72,0,0,1-7.92,5.88,30.8,30.8,0,0,1-11.33,2,61.89,61.89,0,0,1-7.15-.38,50.83,50.83,0,0,1-5.8-1,40,40,0,0,1-4.71-1.42V296.1a55.46,55.46,0,0,0,8,2.33,46.36,46.36,0,0,0,9.89,1,25.4,25.4,0,0,0,9-1.46,13.42,13.42,0,0,0,6.17-4.42,12,12,0,0,0,2.26-7.48,10.73,10.73,0,0,0-1.88-6.53,15.17,15.17,0,0,0-5.64-4.38,80.29,80.29,0,0,0-9.47-3.74,71.26,71.26,0,0,1-7.24-2.9,23.6,23.6,0,0,1-5.55-3.54,13.18,13.18,0,0,1-3.52-4.87,17.11,17.11,0,0,1-1.22-6.74,14.68,14.68,0,0,1,2.72-9,16.84,16.84,0,0,1,7.39-5.53,28,28,0,0,1,10.51-1.88,43.94,43.94,0,0,1,8.83.86,40.06,40.06,0,0,1,8.08,2.59L164,244.33a39.93,39.93,0,0,0-7.79-2.48,38.51,38.51,0,0,0-7.7-.8,22.78,22.78,0,0,0-8.12,1.35,12.55,12.55,0,0,0-5.65,4,10.88,10.88,0,0,0-2.08,6.82,11.31,11.31,0,0,0,1.93,6.86,14.41,14.41,0,0,0,5.49,4.33,71.61,71.61,0,0,0,8.43,3.37,71.57,71.57,0,0,1,9.91,4.09,17.36,17.36,0,0,1,6.44,5.42,14.64,14.64,0,0,1,2.28,8.54A15.87,15.87,0,0,1,164.17,295.6ZM218.78,242h-21v60.59h-4.6V242h-21v-4.11h46.56Zm57.3,37.75a26.23,26.23,0,0,1-2.92,12.86,19.44,19.44,0,0,1-8.38,8.07,28.5,28.5,0,0,1-13.08,2.79q-11.55,0-17.75-6.26t-6.19-17.64V237.87h4.51v41.68q0,9.74,5.07,14.81t14.58,5.06a23.15,23.15,0,0,0,10.62-2.23,15.21,15.21,0,0,0,6.68-6.55,22,22,0,0,0,2.31-10.47v-42.3h4.55Zm58,22.84-8.81-22.88H298.12l-9,22.88h-4.65l25.45-64.92h4.16l24.78,64.92Zm51.24,0-16.68-28.15H352.6v28.15H348v-64.7h15.71a42,42,0,0,1,12.85,1.68,14.37,14.37,0,0,1,7.77,5.53q2.61,3.85,2.61,10.4a18.47,18.47,0,0,1-1.79,8.43,15.9,15.9,0,0,1-4.94,5.78,23.73,23.73,0,0,1-7.25,3.45l17.74,29.43Zm57.05,0-8.81-22.88H406.41l-9,22.88h-4.65l25.44-64.92h4.16l24.79,64.92Zm61,0h-4.65l-38.23-57.22h-.22c.06,1.59.11,3.2.15,4.84s.09,3.32.14,5.05.06,3.5.06,5.33v42h-4.33v-64.7H461l38.1,57h.22c0-1.3-.07-2.8-.11-4.51s-.09-3.47-.13-5.27-.07-3.5-.07-5.09V237.87h4.38ZM559.57,242h-21v60.59H534V242H513v-4.11h46.56Z"/><path class="cls-3" d="M61.81,255.66q0-7.83-4.69-10.8t-14.29-3H32.12v28.5H45q7.92,0,12.37-3.8T61.81,255.66Z"/></g></g></svg>